<svg width="72" height="72" fill="none" xmlns="http://www.w3.org/2000/svg"><g clip-path="url(#clip0_4_117)"><path d="M72 36C72 16.118 55.882 0 36 0S0 16.118 0 36c0 2.446.245 4.835.71 7.144h70.58c.465-2.309.71-4.698.71-7.144z" fill="#96E8FF"/><path d="M.71 43.144C4.024 59.604 18.564 72 36 72s31.976-12.396 35.29-28.856L36 36 .71 43.144z" fill="#FF9500"/><path d="M36 36l-.05.01V72H36c17.436 0 31.976-12.396 35.29-28.856L36 36z" fill="#FE6A16"/><path d="M71.29 43.144a36.161 36.161 0 00.653-9.185L58.581 20.596l-.713.858L46.676 10.39l-17.757.44-3.867 25.338-7.884-7.884-.486 14.861H71.29z" fill="#19CFFC"/><path d="M54.106 38.04c0-10-8.106-18.107-18.106-18.107-10 0-18.106 8.107-18.106 18.106 0 4.969 2.002 9.469 5.242 12.74h25.728a18.047 18.047 0 005.242-12.74z" fill="#636978"/><path d="M54.106 38.04c0-10-8.106-18.107-18.106-18.107l-.05.001V50.78h12.914a18.047 18.047 0 005.242-12.74z" fill="#414952"/><path d="M48.596 30.438H42.55V15.21a.979.979 0 00-.977-.978H30.428a.979.979 0 00-.977.978v15.228h-6.047V15.21a7.033 7.033 0 017.024-7.025h11.144a7.033 7.033 0 017.024 7.025v15.228z" fill="#636978"/><path d="M41.572 8.185H35.95v6.047h5.622c.539 0 .977.439.977.978v15.228h6.047V15.21a7.033 7.033 0 00-7.024-7.025z" fill="#414952"/><path d="M43.992 38.847a8.064 8.064 0 10-15.966-2.29 8.064 8.064 0 0015.966 2.29z" fill="#9196AA"/><path d="M36 29.638l-.05.002v16.124l.05.001a8.063 8.063 0 100-16.127z" fill="#707789"/><path d="M17.168 40.673v-12.39H12.95v12.39l-2.466-2.467L7.5 41.189l7.559 7.56 7.56-7.56-2.984-2.983-2.467 2.467z" fill="#fff"/><path d="M61.048 32.307l-2.467 2.467V20.596h-4.22v14.178l-2.466-2.467-2.983 2.983 7.56 7.56 7.559-7.56-2.983-2.983z" fill="#E9EDF5"/></g><defs><clipPath id="clip0_4_117"><path fill="#fff" d="M0 0h72v72H0z"/></clipPath></defs></svg>