<svg width="72" height="72" fill="none" xmlns="http://www.w3.org/2000/svg"><g clip-path="url(#clip0_4_507)"><path d="M68.644 35.971l2.872-6.956a6.3 6.3 0 00-2.538-7.803l-7.35-4.398-1.657-6.856a6.316 6.316 0 00-6.639-4.824l-8.41.65-4.819-4.266A6.301 6.301 0 0036 0a6.328 6.328 0 00-4.104 1.516l-4.818 4.269-8.41-.651c-3.053-.214-5.906 1.786-6.564 4.575l-2.432 7.562-6.65 3.939a6.3 6.3 0 00-2.537 7.807l2.87 6.954-2.868 6.952a6.296 6.296 0 002.536 7.805l7.343 4.368 1.662 6.886a6.315 6.315 0 006.64 4.824l8.32-.642 4.908 4.316A6.309 6.309 0 0036 72a6.311 6.311 0 004.103-1.52l4.91-4.316 8.32.642c3.143.25 5.907-1.784 6.638-4.824l1.657-6.856 7.35-4.398a6.303 6.303 0 002.536-7.805l-2.87-6.952z" fill="#EDF5FF"/><path d="M45.012 66.164l8.32.642c3.144.25 5.908-1.784 6.64-4.824l1.656-6.856 7.35-4.398a6.303 6.303 0 002.536-7.805l-2.87-6.952 2.872-6.956a6.3 6.3 0 00-2.538-7.803l-7.35-4.398-1.657-6.856a6.316 6.316 0 00-6.639-4.824l-8.41.65-4.819-4.266A6.302 6.302 0 0036 0v72a6.311 6.311 0 004.103-1.52l4.91-4.316z" fill="#D5E8FE"/><path d="M36 59.203c12.815 0 23.203-10.388 23.203-23.203S48.815 12.797 36 12.797 12.797 23.185 12.797 36 23.185 59.203 36 59.203z" fill="#EAB60E"/><path d="M59.203 36c0-12.794-10.409-23.203-23.203-23.203v46.406c12.794 0 23.203-10.409 23.203-23.203z" fill="#F6BF0C"/><path d="M48.038 28.18a2.109 2.109 0 00-2.983 0L36 37.236l-2.11 2.11-6.945-6.947a2.109 2.109 0 10-2.983 2.983l8.437 8.437a2.103 2.103 0 002.982 0l.619-.618 12.038-12.038a2.108 2.108 0 000-2.983z" fill="#EDF5FF"/><path d="M48.038 28.18a2.109 2.109 0 00-2.983 0L36 37.236V43.2l12.038-12.038a2.108 2.108 0 000-2.983z" fill="#D5E8FE"/></g><defs><clipPath id="clip0_4_507"><path fill="#fff" d="M0 0h72v72H0z"/></clipPath></defs></svg>