<svg width="72" height="72" fill="none" xmlns="http://www.w3.org/2000/svg"><g clip-path="url(#clip0_4_516)"><path d="M46.547 61.313C46.547 67.133 41.822 72 36 72c-5.822 0-10.547-4.866-10.547-10.688a2.09 2.09 0 012.11-2.109h16.875a2.09 2.09 0 012.109 2.11z" fill="#AEADB3"/><path d="M46.547 61.313C46.547 67.133 41.822 72 36 72V59.203h8.438a2.09 2.09 0 012.109 2.11z" fill="#8B8892"/><path d="M50.766 54.984v2.11a6.32 6.32 0 01-6.328 6.328H27.561a6.32 6.32 0 01-6.328-6.328v-2.11l4.008-4.359h21.516l4.008 4.36z" fill="#D9D9D9"/><path d="M46.758 50.625l4.008 4.36v2.109a6.32 6.32 0 01-6.328 6.328H36V50.625h10.758z" fill="#C8C6CD"/><path d="M61.313 25.313a25.257 25.257 0 01-6.286 16.664c-2.236 2.573-3.587 5.568-4.05 8.648-.085.717-.211 1.533-.211 2.25v2.11H21.234v-2.11c0-.717-.084-1.533-.21-2.25a16.068 16.068 0 00-3.966-8.522c-5.4-6.075-7.51-14.217-5.78-22.317 2.025-9.492 9.745-17.213 19.28-19.238A26.457 26.457 0 0136 0c5.78 0 11.433 1.983 15.947 5.653 5.948 4.852 9.365 12.024 9.365 19.66z" fill="#FEDB41"/><path d="M61.313 25.313a25.257 25.257 0 01-6.286 16.664c-2.236 2.573-3.587 5.568-4.05 8.648-.085.717-.211 1.533-.211 2.25v2.11H36V0c5.78 0 11.433 1.983 15.947 5.653 5.948 4.852 9.365 12.024 9.365 19.66z" fill="#FCBF29"/><path d="M52.875 25.313a2.09 2.09 0 01-2.11 2.109 2.089 2.089 0 01-2.109-2.11c0-6.96-5.695-12.656-12.656-12.656a2.089 2.089 0 01-2.11-2.11A2.09 2.09 0 0136 8.438c9.324 0 16.875 7.55 16.875 16.874zM6.328 29.531H2.11A2.108 2.108 0 010 27.421c0-1.165.943-2.108 2.11-2.108h4.218a2.108 2.108 0 110 4.219zM5.71 18.366a2.1 2.1 0 01-1.491-.618l-2.983-2.983a2.109 2.109 0 112.983-2.982l2.983 2.982a2.109 2.109 0 01-1.492 3.601zM1.236 43.06a2.109 2.109 0 010-2.982l2.983-2.983a2.109 2.109 0 112.983 2.983l-2.983 2.983a2.109 2.109 0 01-2.983 0z" fill="#FEA832"/><path d="M69.89 29.531h-4.218a2.108 2.108 0 01-2.11-2.11c0-1.165.944-2.108 2.11-2.108h4.219a2.108 2.108 0 110 4.219zm-5.091-11.783a2.109 2.109 0 010-2.983l2.982-2.982a2.109 2.109 0 112.983 2.982l-2.983 2.983a2.109 2.109 0 01-2.983 0zm2.982 25.312l-2.983-2.982a2.109 2.109 0 112.983-2.983l2.983 2.983a2.109 2.109 0 11-2.983 2.983zM52.875 25.313a2.09 2.09 0 01-2.11 2.109 2.089 2.089 0 01-2.109-2.11c0-6.96-5.695-12.656-12.656-12.656V8.437c9.324 0 16.875 7.552 16.875 16.876z" fill="#FE9923"/></g><defs><clipPath id="clip0_4_516"><path fill="#fff" d="M0 0h72v72H0z"/></clipPath></defs></svg>