<svg width="72" height="72" fill="none" xmlns="http://www.w3.org/2000/svg"><g clip-path="url(#clip0_4_534)"><path d="M68.906 37.167a34.269 34.269 0 01-8.197 22.206c-.987 1.16-2.89.45-2.89-1.073V13.316H12.973c-1.271 0-1.863-1.583-.896-2.409A34.338 34.338 0 0134.639 2.66c18.927.1 34.312 15.596 34.267 34.507z" fill="#00C8DE"/><path d="M64.819 34.495c0 15.52-12.592 28.101-28.125 28.101S8.569 50.015 8.569 34.495 21.16 6.394 36.694 6.394s28.125 12.58 28.125 28.1z" fill="#2DD2E3"/><path d="M59.832 60.365a34.484 34.484 0 01-14.399 9.358c-.217.072-.54-.538-.76-.47a34.958 34.958 0 01-8.52 1.531c-.323.017-.466.703-.79.712a34.798 34.798 0 01-6.016-.364c-.149-.022-.191-.432-.34-.456-.47-.076-.935-.161-1.399-.256-.088-.018-.282.35-.37.331a34.212 34.212 0 01-6.27-1.98c-.24-.102-.806-1.395-1.044-1.503-3.2-1.448-5.144-2.93-7.732-5.237-.124-.111-.918.523-1.04.41a34.654 34.654 0 01-2.078-2.076c-.178-.193.288-.923.114-1.12-2.329-2.652-4.206-5.296-5.637-8.574-.141-.324-.97-.485-1.101-.813a34.135 34.135 0 01-1.694-5.565c-.019-.09.414-.172.395-.261a34.158 34.158 0 01-.28-1.552c-.016-.096-.481-.199-.496-.295A34.735 34.735 0 01.01 36.24c.006-.261.77-.422.783-.681.144-3.099.698-6.09 1.61-8.923.045-.141-.664-.382-.617-.522a34.451 34.451 0 019.366-14.387c.117-.107.485-.052.604-.158.226-.202.387-.297.619-.493l.652-.005A34.242 34.242 0 007.83 29.26c0 19.013 15.425 34.425 34.453 34.425a34.315 34.315 0 0018.039-5.09l.007.422c-.225.265-.461.555-.694.813-.077.086.275.451.198.535z" fill="#004B94"/><path d="M60.433 42.474v1.462l.317.318v5.604l-.565.574.143 8.585-.401.478a34.315 34.315 0 01-19.487 6.03c-19.027 0-34.453-15.412-34.453-34.423 0-7.47 2.382-14.385 6.428-20.027l16.386-.126.507-.14h6.055l.766.424h8.904l.36-.424h12.545a2.811 2.811 0 012.812 2.81v28.605l-.317.25z" fill="#005AAF"/><path d="M7.218 36.239H.01a34.39 34.39 0 011.143-8.018c.018-.07.611-.14.63-.21.038-.14.077-.279.117-.418h4.93a34.84 34.84 0 00.388 8.646zm33.954 28.556c-1.98 0-3.92-.167-5.81-.488v7.19a34.461 34.461 0 008.038-1.161.828.828 0 00.616-.799v-4.858a35.2 35.2 0 01-2.844.116zM12.324 11.542c.136-.206.273-.41.412-.614a.857.857 0 00-.412.614zm-.008 37.643v.673H2.45a34.378 34.378 0 004.836 8.4c.065.082 5.03.245 5.03.245l-.314 3.839c.207.174.416.345.627.514.106.084.526 1.288.632 1.372a34.43 34.43 0 007.707 4.543V58.503h.344a34.627 34.627 0 01-8.996-9.318z" fill="#005AAF"/><path d="M44.016 11.43a.622.622 0 00-.623-.62h-8.03v16.783H20.968V10.81h-7.796a.857.857 0 00-.857.856v15.928H6.176a34.79 34.79 0 00.208 8.646h5.932v13.619h-.748a34.625 34.625 0 009.4 9.623v-.978h14.395v6.636a34.897 34.897 0 008.653.192v-6.828l16.734-.194v-8.451H44.016v-13.62H60.75v-8.645H44.016V11.431zm-8.653 38.428H20.968v-13.62h14.395v13.62z" fill="#0573CF"/><path d="M12.316 49.858h8.653v8.645h-8.653v-8.645zm0-13.62h8.653v-8.645h-8.653v8.646zm23.047 22.265h8.653v-8.645h-8.653v8.645zm0-30.91v8.646h8.653v-8.646h-8.653z" fill="#5290D9"/><path d="M60.464 28.22c.1 0 .195-.013.286-.038v-2.03a1.057 1.057 0 00-.286-.039h-15.03V11.095c0-.1-.014-.195-.04-.286h-2.031c-.026.09-.04.187-.04.286v10.332a20.07 20.07 0 00-2.964-1.39 1.055 1.055 0 00-.725 1.978c1.19.435 2.443 1.08 3.69 1.873v2.225H29.347V11.095c0-.1-.013-.195-.039-.286h-2.031c-.026.09-.04.187-.04.286v15.018h-4.872a20.02 20.02 0 001.383-2.945 1.054 1.054 0 10-1.981-.725c-.433 1.183-1.075 2.43-1.863 3.67H13.26V11.095c0-.1-.013-.195-.039-.286h-1.03c-.353.299-.7.605-1.04.917v14.387H1.787a34.105 34.105 0 00-.634 2.108h10v13.964H.375c.105.71.232 1.413.38 2.108h10.396v13.965H7.286a34.58 34.58 0 001.788 2.107h2.078v2.076a34.71 34.71 0 002.11 1.787v-3.863h13.976v10.386a34.28 34.28 0 002.11.381v-2.671c.988-1.184 2.033-2.22 3.079-3.02a1.055 1.055 0 00-1.281-1.675 18.94 18.94 0 00-1.799 1.576v-4.977h13.977v9.99c.712-.189 1.415-.4 2.109-.633v-9.357h14.399c.313-.34.619-.687.918-1.04v-1.029a1.06 1.06 0 00-.286-.039h-5.428c-.955-.844-1.795-1.722-2.467-2.6a1.055 1.055 0 00-1.676 1.28c.339.443.714.884 1.12 1.32h-6.58V44.292h15.031c.1 0 .195-.013.286-.039v-2.03a1.057 1.057 0 00-.286-.038h-15.03V28.22h15.03zM27.238 58.259H13.26V44.293h13.977v13.965zm0-16.073H13.26V28.221h13.977v13.964zm16.086 16.073H29.347V44.293h13.977v13.965zm0-16.073H29.347V28.221h13.977v13.964z" fill="#00A86D"/><path d="M49.557 36.207c-.454-5.862 1.878-11.393 6.633-14.293 4.755-2.9 10.744-2.444 15.754.64.454 5.861-17.376 16.736-22.387 13.653zM26.185.534c-4.383-.34-8.518 1.401-10.686 4.95-2.168 3.549-1.827 8.019.478 11.758C20.36 17.581 28.49 4.273 26.185.534zM16.328 43.23c-2.305 3.74-2.646 8.21-.478 11.758 2.168 3.549 6.304 5.289 10.686 4.95 2.304-3.74-5.826-17.047-10.208-16.708z" fill="#00C53B"/><path d="M65.312 36.846c-4.755 2.9-10.744 2.444-15.755-.639-.454-5.862 17.377-16.737 22.387-13.654.454 5.862-1.877 11.393-6.632 14.293zM26.185.534c-4.383-.34-12.513 12.969-10.208 16.708 4.382.339 8.517-1.401 10.685-4.95 2.169-3.549 1.827-8.019-.477-11.758zm.828 47.646c-2.168-3.55-6.303-5.29-10.685-4.95-2.305 3.74 5.825 17.047 10.208 16.708 2.304-3.74 2.645-8.21.477-11.758z" fill="#4BCD5C"/><path d="M46.411 43.058a1.053 1.053 0 01-.935-1.54c1.63-3.13 4.433-6.526 7.894-9.565 3.462-3.038 7.194-5.38 10.509-6.591a1.055 1.055 0 01.725 1.979c-6.38 2.332-14.121 9.128-17.257 15.15-.188.36-.555.567-.936.567zm-33.54-22.534c4.934-2.564 10.295-8.66 12.205-13.88a1.054 1.054 0 10-1.98-.723c-1.724 4.707-6.748 10.42-11.199 12.734a1.053 1.053 0 10.974 1.87zM24.8 55.18c.547-.2.829-.806.628-1.352-1.91-5.218-7.272-11.315-12.205-13.88a1.055 1.055 0 00-.974 1.87c4.451 2.314 9.475 8.026 11.199 12.734a1.055 1.055 0 001.352.628z" fill="#00A86D"/></g><defs><clipPath id="clip0_4_534"><path fill="#fff" d="M0 0h72v72H0z"/></clipPath></defs></svg>