<svg width="72" height="72" fill="none" xmlns="http://www.w3.org/2000/svg"><path d="M33.99 38.706v26.665a2.612 2.612 0 01-2.608 2.608 2.612 2.612 0 01-2.611-2.608v-1.615a2.008 2.008 0 10-4.018 0v1.615A6.634 6.634 0 0031.382 72c3.655 0 6.626-2.974 6.626-6.63V38.707h-4.019zm4.018-21.218V13.54a2.01 2.01 0 00-4.018 0v3.948h4.018z" fill="#415A6B"/><path d="M15.978 42.235c4.096 0 6.032.774 8.534 2.798 2.7-2.025 6.849-3.32 11.488-3.32 4.636 0 8.788 1.295 11.485 3.32 2.502-2.025 4.437-2.798 8.534-2.798 4.824 0 9.006 1.606 11.1 3.954C65.835 28.146 52.41 13.944 36 13.944S6.163 28.146 4.88 46.189c2.092-2.347 6.274-3.954 11.098-3.954z" fill="#F3705A"/><path d="M36 13.945c-5.175 0-9.981 12.56-11.441 31.057 2.696-2.005 6.829-3.288 11.441-3.288 4.612 0 8.742 1.283 11.438 3.288C45.978 26.504 41.175 13.945 36 13.945z" fill="#F05540"/><path d="M16.066 19.062a3.72 3.72 0 11-7.442 0c0-2.054 3.721-6.87 3.721-6.87s3.721 4.816 3.721 6.87z" fill="#8AD7F8"/><path d="M12.344 21.598a2.537 2.537 0 01-2.535-2.535c0-.219.179-.397.397-.397.217 0 .396.178.396.397 0 .962.781 1.742 1.743 1.742a.397.397 0 11-.002.792z" fill="#fff"/><path d="M39.721 6.872a3.723 3.723 0 01-7.445 0C32.276 4.817 36 0 36 0s3.721 4.817 3.721 6.872z" fill="#8AD7F8"/><path d="M36 9.408a2.54 2.54 0 01-2.537-2.536.398.398 0 01.795 0c0 .963.78 1.744 1.744 1.744.217 0 .396.178.396.396a.4.4 0 01-.398.396z" fill="#fff"/><path d="M61.517 13.105a3.723 3.723 0 01-7.445 0c0-2.055 3.72-6.872 3.72-6.872s3.725 4.817 3.725 6.872z" fill="#8AD7F8"/><path d="M57.791 15.642a2.537 2.537 0 01-2.534-2.535c0-.218.179-.397.396-.397.218 0 .396.179.396.397 0 .963.782 1.743 1.744 1.743.218 0 .396.179.396.396a.4.4 0 01-.398.396z" fill="#fff"/><path d="M24.753 33.399a3.72 3.72 0 11-7.442 0c0-2.056 3.72-6.872 3.72-6.872s3.722 4.815 3.722 6.872z" fill="#8AD7F8"/><path d="M21.03 35.935a2.54 2.54 0 01-2.537-2.536.398.398 0 01.795 0c0 .963.78 1.743 1.744 1.743a.397.397 0 11-.002.792z" fill="#fff"/><path d="M52.604 28.539a3.723 3.723 0 01-7.445 0c0-2.056 3.724-6.872 3.724-6.872s3.721 4.816 3.721 6.872z" fill="#8AD7F8"/><path d="M48.883 31.076a2.54 2.54 0 01-2.537-2.536.398.398 0 01.795 0c0 .964.78 1.744 1.744 1.744.217 0 .396.178.396.398a.398.398 0 01-.398.394z" fill="#fff"/></svg>