<svg width="72" height="72" fill="none" xmlns="http://www.w3.org/2000/svg"><path d="M45.003 44.347V8.74a8.74 8.74 0 10-17.482 0v35.606c-3.91 2.751-6.466 7.3-6.466 12.445 0 8.4 6.808 15.208 15.208 15.208 8.399 0 15.207-6.809 15.207-15.208 0-5.145-2.556-9.694-6.467-12.445z" fill="#D8D8D8"/><path d="M36.263 67.02c-5.792 0-10.503-4.713-10.503-10.504 0-4.398 2.732-8.313 6.833-9.84V8.74a3.673 3.673 0 013.67-3.67 3.673 3.673 0 013.669 3.67v37.934a10.497 10.497 0 016.834 9.84c0 5.792-4.712 10.504-10.503 10.504z" fill="#F3E8D7"/><path d="M32.593 42.025v4.65a10.498 10.498 0 00-6.834 9.841c0 5.791 4.712 10.503 10.504 10.503 5.79 0 10.503-4.712 10.503-10.503 0-4.398-2.734-8.313-6.834-9.84v-4.65h-7.34z" fill="#69E6ED"/><path d="M39.932 46.675v-4.65h-7.339v4.65s5.073 2.354 5.073 9.841c0 4.163-2.434 7.767-5.953 9.466a10.44 10.44 0 004.55 1.037c5.79 0 10.503-4.712 10.503-10.503 0-4.398-2.734-8.313-6.834-9.84z" fill="#33D8DD"/><path d="M57.11 25.343h-6.303a1.087 1.087 0 110-2.173h6.304a1.086 1.086 0 010 2.173zm-3.44-8.806h-2.863a1.087 1.087 0 110-2.173h2.862a1.087 1.087 0 010 2.173zm1.013-8.806h-3.876a1.087 1.087 0 110-2.173h3.876a1.086 1.086 0 110 2.173zm0 35.225h-3.876a1.087 1.087 0 110-2.174h3.876a1.086 1.086 0 110 2.174zM53.67 34.15h-2.863a1.087 1.087 0 110-2.174h2.862a1.087 1.087 0 010 2.173z" fill="#0D6E9A"/><path d="M21.33 21.642l-1.854-1.039 1.363-.558a1.086 1.086 0 10-.824-2.01l-2.962 1.213-3.886-2.177 3.886-2.176 2.962 1.213a1.087 1.087 0 00.824-2.011l-1.363-.558L21.33 12.5a1.086 1.086 0 00-1.062-1.896l-1.854 1.038.236-1.454a1.086 1.086 0 10-2.144-.349L15.992 13l-3.963 2.219v-4.542l2.506-1.992a1.086 1.086 0 10-1.352-1.701L12.03 7.9V5.775a1.087 1.087 0 10-2.174 0V7.9l-1.153-.916a1.086 1.086 0 10-1.352 1.7l2.505 1.992v4.542l-3.962-2.22L5.38 9.84a1.086 1.086 0 10-2.145.35l.237 1.453-1.854-1.038A1.087 1.087 0 00.556 12.5l1.854 1.04-1.364.558a1.087 1.087 0 00.824 2.011l2.962-1.213L8.72 17.07l-3.887 2.177-2.962-1.214a1.086 1.086 0 00-.824 2.01l1.364.56-1.854 1.038a1.087 1.087 0 001.062 1.896L3.472 22.5l-.237 1.454a1.086 1.086 0 102.145.349l.514-3.16 3.962-2.218v4.541L7.35 25.458a1.086 1.086 0 001.353 1.7l1.153-.916v2.125a1.086 1.086 0 102.174 0v-2.125l1.153.917a1.083 1.083 0 001.526-.175 1.086 1.086 0 00-.174-1.526l-2.506-1.992v-4.541l3.963 2.218.513 3.16a1.086 1.086 0 102.145-.349l-.236-1.454 1.854 1.038a1.086 1.086 0 101.062-1.896z" fill="#33D8DD"/></svg>