<svg width="38" height="38" fill="none" xmlns="http://www.w3.org/2000/svg"><path d="M29.688 15.438H14.25a1.188 1.188 0 000 2.374h15.438a1.188 1.188 0 000-2.375z" fill="#F6BF0C"/><path d="M35.483 10.806A3.562 3.562 0 0032.727 9.5H9.285L8.67 6.424a3.562 3.562 0 00-3.492-2.862H2.376a1.188 1.188 0 000 2.376h2.803a1.187 1.187 0 011.187.95l3.966 19.938a3.563 3.563 0 003.492 2.861h18.24a1.188 1.188 0 000-2.375h-18.24a1.188 1.188 0 01-1.188-.95l-.499-2.612h19.166a3.563 3.563 0 003.492-2.862l1.425-7.125a3.562 3.562 0 00-.736-2.957zm-3.017 9.619a1.187 1.187 0 01-1.187.95H11.66l-1.9-9.5h22.966a1.19 1.19 0 01.915.44 1.189 1.189 0 01.25.985l-1.426 7.125zM29.688 33.25a1.188 1.188 0 100-2.375 1.188 1.188 0 000 2.375zm-14.25 0a1.188 1.188 0 100-2.375 1.188 1.188 0 000 2.375z" fill="#F6BF0C"/></svg>