<svg width="138" height="138" fill="none" xmlns="http://www.w3.org/2000/svg"><path d="M130.529 126.522c0 2.097-1.486 4.671-3.317 5.706-.982.557-1.857.584-2.468.159l-18.736-10.881-6.05 3.503-6.343-3.689c-4.777.929-10.085.717-14.623-.637-.266.213-.558.372-.823.531-10.907 6.29-19.771 1.248-19.824-11.305 0-1.301.08-2.627.292-3.981L18.723 128.99l-11.04-6.422-.212-79.934L72.118 5.32l11.04 6.396.16 61.86c8.36-2.202 14.543 3.053 14.57 13.509 0 .424 0 .85-.054 1.274.027.45.053.902.053 1.38 0 .371 0 .716-.053 1.088l3.397 1.964c3.689 2.15 5.547 4.962 5.547 7.775v4.087l5.334 3.079.026 6.528 17.409 10.111a.202.202 0 00-.132-.053c.69.319 1.114 1.062 1.114 2.203z" fill="#3D566E"/><path d="M18.726 128.979l-11.043-6.418-.21-79.934 11.043 6.418.21 79.934z" fill="#525566"/><path d="M18.516 49.045L7.473 42.627l64.64-37.32 11.043 6.418-64.64 37.32z" fill="#5B5E71"/><path d="M83.367 91.659L18.73 128.983l-.207-79.937L83.16 11.721l.207 79.938z" fill="#474B59"/><path d="M67.623 42.114c2.177 2.815 3.436 6.873 3.45 11.983.045 14.752-10.323 32.748-23.18 40.168-6.56 3.792-12.5 4.088-16.736 1.496 4.103 5.303 11.464 6.177 19.862 1.333 12.857-7.42 23.224-25.416 23.18-40.168-.015-7.214-2.518-12.323-6.576-14.812z" fill="#3F434F"/><path d="M47.894 94.266c12.856-7.421 23.224-25.417 23.18-40.17-.015-5.11-1.274-9.167-3.451-11.982-4.236-2.577-10.19-2.28-16.752 1.511-12.856 7.406-23.224 25.387-23.18 40.154.015 5.11 1.274 9.168 3.466 11.982 4.236 2.593 10.175 2.296 16.737-1.495z" fill="#E0E2E2"/><path d="M37.34 71.688c2.017-1.165 3.659-.23 3.665 2.088.007 2.319-1.624 5.15-3.641 6.316-2.011 1.16-3.66.222-3.666-2.097-.006-2.318 1.63-5.146 3.642-6.307zM61.395 57.8c2.017-1.164 3.665-.233 3.672 2.086.006 2.318-1.631 5.154-3.649 6.319-2.01 1.16-3.652.218-3.659-2.1-.006-2.319 1.624-5.143 3.636-6.304z" fill="#5B5E71"/><path d="M92.308 95.957a2.943 2.943 0 01-1.479-.398l-27.367-15.8a2.962 2.962 0 112.962-5.131l27.368 15.8a2.962 2.962 0 01-1.484 5.529zm-20.456 11.888a2.942 2.942 0 01-1.479-.398l-27.368-15.8a2.962 2.962 0 112.963-5.131l27.368 15.801a2.962 2.962 0 01-1.484 5.528z" fill="#C4C6C6"/><path d="M78.055 75.78c10.915-6.302 19.798-1.252 19.833 11.291.036 12.567-8.789 27.84-19.705 34.142-10.905 6.297-19.788 1.247-19.823-11.32-.036-12.543 8.789-27.816 19.695-34.113z" fill="#ECF0F1"/><path d="M80.934 80.079c9.33-5.387 16.924-1.07 16.954 9.652.03 10.742-7.513 23.798-16.844 29.186-9.322 5.382-16.915 1.065-16.946-9.677-.03-10.723 7.513-23.779 16.836-29.161z" fill="#D4D6D6"/><path d="M106.8 110.793l-.029-10.236c.004 1.186-.32 2.373-.97 3.511l.029 10.236c.65-1.139.974-2.326.97-3.511z" fill="#C4C6C6"/><path d="M93.624 121.327c-6.624 1.287-14.19.377-19.432-2.668l-7.863-4.568-.016-10.234 7.848 4.568c5.242 3.045 12.808 3.94 19.431 2.668l.032 10.234z" fill="#E0E2E2"/><path d="M99.928 114.772l.029 10.236 12.186-7.036-.029-10.236-12.186 7.036z" fill="#C4C6C6"/><path d="M93.596 111.092l.028 10.236 6.333 3.68-.03-10.236-6.332-3.68z" fill="#D4D6D6"/><path d="M66.307 103.86l7.855 4.565c5.247 3.049 12.804 3.946 19.433 2.667l6.333 3.68 12.186-7.036-6.313-3.668c2.19-3.836.676-8.222-4.571-11.27l-7.856-4.566-27.067 15.628z" fill="#ECF0F1"/><path d="M129.56 124.381c-.602-.341-1.434-.301-2.357.231-1.835 1.063-3.319 3.629-3.309 5.725 0 1.053.371 1.785.973 2.136l-20.339-11.825c-.601-.351-.972-1.083-.972-2.126 0-2.105 1.473-4.672 3.308-5.725.923-.532 1.755-.582 2.357-.231l20.339 11.815z" fill="#474B59"/><path d="M127.2 124.617c1.831-1.057 3.321-.208 3.327 1.896.006 2.103-1.474 4.668-3.305 5.725-1.831 1.057-3.321.208-3.327-1.896-.006-2.104 1.474-4.668 3.305-5.725z" fill="#5B5E71"/><path d="M93.62 102.183c-1.455.858-3.825.858-5.28.018-1.456-.839-1.456-2.202.018-3.06 1.437-.84 3.788-.84 5.243 0 1.456.84 1.475 2.221.02 3.042z" fill="#D4D6D6"/></svg>