<svg width="138" height="138" fill="none" xmlns="http://www.w3.org/2000/svg"><g clip-path="url(#clip0_4_736)"><path d="M84.706 31.412H53.294V3.235A3.235 3.235 0 0156.529 0H81.47a3.235 3.235 0 013.235 3.235v28.177z" fill="#C9E2E7"/><path d="M81.471 0H70.46a3.235 3.235 0 013.235 3.235v28.177h11.012V3.235A3.234 3.234 0 0081.47 0z" fill="#A8D0D5"/><path d="M98.289 138H39.71a6.38 6.38 0 01-6.38-6.38V19.854a6.38 6.38 0 016.38-6.38h58.577a6.38 6.38 0 016.38 6.38V131.62a6.379 6.379 0 01-6.38 6.38z" fill="#3C5959"/><path d="M98.289 13.474H87.277a6.38 6.38 0 016.38 6.38V131.62a6.38 6.38 0 01-6.38 6.38h11.012a6.38 6.38 0 006.38-6.38V19.854a6.38 6.38 0 00-6.38-6.38z" fill="#394949"/><path d="M33.331 19.854a6.38 6.38 0 016.38-6.38H98.29a6.38 6.38 0 016.38 6.38v24.853H33.331V19.854z" fill="#89C627"/><path d="M104.669 44.707V19.854a6.38 6.38 0 00-6.38-6.38H87.276a6.38 6.38 0 016.38 6.38v24.853h11.012z" fill="#7DB723"/><path d="M55.508 123.183a4.858 4.858 0 01-.581-6.846L71.922 96.19h-16.3c-4.123 0-6.375-4.836-3.714-7.992L75.645 60.06a4.86 4.86 0 017.428 6.266L66.078 86.472h16.3c4.123 0 6.374 4.837 3.713 7.992l-23.737 28.138a4.858 4.858 0 01-6.846.581z" fill="#FCDD2E"/><path d="M74.835 26.512h-3.813V22.7a2.021 2.021 0 10-4.044 0v3.813h-3.812a2.021 2.021 0 100 4.043h3.813v3.813a2.021 2.021 0 104.043 0v-3.813h3.813a2.021 2.021 0 100-4.043z" fill="#E8F3FF"/></g><defs><clipPath id="clip0_4_736"><path fill="#fff" d="M0 0h138v138H0z"/></clipPath></defs></svg>