<svg width="22" height="26" fill="none" xmlns="http://www.w3.org/2000/svg"><path d="M10.981 9.767c3.48 0 6.3 2.711 6.3 6.056s-2.82 6.057-6.3 6.057c-3.479 0-6.299-2.712-6.299-6.057s2.82-6.056 6.3-6.056zm0 0l-.272-3.624m2.64 15.294l.74 3.563m2.28-5.614l2.395 2.81m-1.511-5.806l3.747.469m-4.631-4.176l3.65-.94M13.85 10.43l2.518-2.71m-8.962 3.115l-2.42-2.79m.018 5.327l-3.378-1.63m7.147 9.548l-.978 3.51m-2.002-5.414l-2.318 2.87m1.243-5.777L1 17.124M13.174 1.857L11.434 1 8.827 2.071m4.348-.214l2.609 1.286m-2.61-1.286v3.429M8.827 2.07l-2.61 1.073m2.61-1.072v3.215" stroke="#000"/></svg>