<svg width="106" height="85" fill="none" xmlns="http://www.w3.org/2000/svg"><g clip-path="url(#clip0_24_2)"><path d="M39.493 37.99l4.808-2.706a7.092 7.092 0 002.634-2.584 7.177 7.177 0 00.072-7.157 7.098 7.098 0 00-2.581-2.638l-4.764-2.8c-6.804-4.006-15.349.939-15.349 8.891.005 7.856 8.381 12.817 15.18 8.993z" fill="url(#paint0_linear_24_2)"/><path d="M66.494 19.872l-4.808 2.705a7.097 7.097 0 00-2.633 2.584 7.18 7.18 0 00-.07 7.158 7.097 7.097 0 002.581 2.637l4.764 2.801c6.801 4.005 15.349-.94 15.349-8.892-.008-7.858-8.379-12.82-15.183-8.993z" fill="url(#paint1_linear_24_2)"/><path d="M44.018 15.308l2.867 5.186a6.88 6.88 0 002.482 2.575 6.8 6.8 0 006.874.07 6.875 6.875 0 002.534-2.522l2.969-5.13C65.714 8.622 60.81 0 52.932 0c-7.8-.005-12.706 8.443-8.914 15.308z" fill="url(#paint2_linear_24_2)"/><path d="M61.972 42.55l-2.681-4.852a7.097 7.097 0 00-2.563-2.654 7.018 7.018 0 00-7.092-.072 7.097 7.097 0 00-2.614 2.603l-2.776 4.807c-3.97 6.865.932 15.487 8.813 15.487 7.788-.005 12.716-8.454 8.913-15.32z" fill="url(#paint3_linear_24_2)"/><path d="M9.188 84.235l-.936-2.553h-5.88l-.935 2.553H0l4.515-11.748h1.614l4.5 11.748h-1.44zm-6.367-3.754h4.997l-2.47-6.75h-.053l-2.474 6.75zm15.424-.676l2.723 4.43h-1.482l-2.583-4.25H13.5v4.25h-1.286V72.487h4.708c2.416 0 4.046 1.564 4.046 3.738a3.67 3.67 0 01-.747 2.266 3.613 3.613 0 01-1.976 1.314zm-4.745-6.11v5.096h3.51c1.587 0 2.619-1.05 2.619-2.553s-1.04-2.542-2.62-2.542H13.5zm17.45-1.201v1.202h-3.86v10.54h-1.276v-10.54H21.93v-1.202h9.02zm9.54 1.202h-6.674v4.029h6.145v1.191h-6.145v4.118h6.674v1.201h-7.96V72.487h7.96v1.209zm9.03-1.202c3.597 0 6.153 2.58 6.153 5.853 0 3.274-2.59 5.888-6.187 5.888H45.95V72.487l3.57.007zm-.018 10.54c2.805 0 4.813-2.072 4.813-4.687 0-2.614-2.008-4.651-4.813-4.651h-2.253v9.346l2.253-.008zm8.184 1.201V72.487h1.287v11.748h-1.287zm7.265 0V72.487h1.286v10.538h6.153v1.202l-7.439.008zm8.659-4.632v-7.109h1.287v7.189c0 2.213 1.172 3.548 3.244 3.548 2.02 0 3.21-1.335 3.21-3.548v-7.189h1.287v7.109c0 3.049-1.797 4.846-4.5 4.846-2.754.003-4.528-1.797-4.528-4.846zm10.954-1.256c0-3.398 2.715-6.066 6.145-6.066a5.936 5.936 0 013.16.852 6.007 6.007 0 012.243 2.403l-1.193.638a4.721 4.721 0 00-1.745-1.957 4.663 4.663 0 00-2.51-.713 4.803 4.803 0 00-3.338 1.465 4.89 4.89 0 00-1.374 3.401 4.89 4.89 0 001.374 3.402 4.803 4.803 0 003.338 1.465 4.67 4.67 0 002.517-.73 4.727 4.727 0 001.738-1.975l1.183.633a6.154 6.154 0 01-2.9 2.729c-1.24.56-2.63.69-3.95.367a6.126 6.126 0 01-3.346-2.148 6.225 6.225 0 01-1.343-3.766zm21.435-4.651h-6.687v4.029h6.159v1.191h-6.16v4.118H106v1.201h-7.973V72.487H106v1.209z" fill="#fff"/></g><defs><linearGradient id="paint0_linear_24_2" x1="43.918" y1="32.328" x2="21.907" y2="24.647" gradientUnits="userSpaceOnUse"><stop stop-color="#FBE30C"/><stop offset=".37" stop-color="#F4AE0B"/><stop offset=".92" stop-color="#EB6409"/></linearGradient><linearGradient id="paint1_linear_24_2" x1="70.041" y1="20.969" x2="69.567" y2="42.077" gradientUnits="userSpaceOnUse"><stop offset=".13" stop-color="#85D1F5"/><stop offset=".82" stop-color="#2099D6"/><stop offset="1" stop-color="#118CCD"/></linearGradient><linearGradient id="paint2_linear_24_2" x1="63.155" y1="12.019" x2="42.711" y2="12.019" gradientUnits="userSpaceOnUse"><stop stop-color="#D5DC54"/><stop offset=".31" stop-color="#8EC74A"/><stop offset=".64" stop-color="#48B341"/><stop offset=".88" stop-color="#1CA63B"/><stop offset="1" stop-color="#0BA139"/></linearGradient><linearGradient id="paint3_linear_24_2" x1="59.582" y1="35.962" x2="45.679" y2="60.248" gradientUnits="userSpaceOnUse"><stop offset=".25" stop-color="#E74A93"/><stop offset="1" stop-color="#5C2B82"/></linearGradient><clipPath id="clip0_24_2"><path fill="#fff" d="M0 0h106v85H0z"/></clipPath></defs></svg>