<svg viewBox="0 0 38 38" xmlns="http://www.w3.org/2000/svg" xmlns:xlink="http://www.w3.org/1999/xlink"><style>:root&gt;svg{display:none}:root&gt;svg:target{display:block}</style><svg viewBox="0 0 9 15" id="arrow-back" xmlns="http://www.w3.org/2000/svg"><path opacity=".3" d="M8 1L1 7.5 8 14"/></svg><svg viewBox="0 0 38 38" id="cart" xmlns="http://www.w3.org/2000/svg"><path d="M29.688 15.438H14.25a1.188 1.188 0 000 2.374h15.438a1.188 1.188 0 000-2.375z"/><path d="M35.483 10.806A3.562 3.562 0 0032.727 9.5H9.285L8.67 6.424a3.562 3.562 0 00-3.492-2.862H2.376a1.188 1.188 0 000 2.376h2.803a1.187 1.187 0 011.187.95l3.966 19.938a3.563 3.563 0 003.492 2.861h18.24a1.188 1.188 0 000-2.375h-18.24a1.188 1.188 0 01-1.188-.95l-.499-2.612h19.166a3.563 3.563 0 003.492-2.862l1.425-7.125a3.562 3.562 0 00-.736-2.957zm-3.017 9.619a1.187 1.187 0 01-1.187.95H11.66l-1.9-9.5h22.966a1.19 1.19 0 01.915.44 1.189 1.189 0 01.25.985l-1.426 7.125zM29.688 33.25a1.188 1.188 0 100-2.375 1.188 1.188 0 000 2.375zm-14.25 0a1.188 1.188 0 100-2.375 1.188 1.188 0 000 2.375z"/></svg><svg viewBox="0 0 26 25" id="close" xmlns="http://www.w3.org/2000/svg"><path opacity=".3" d="M2.371 1L25 24M23.628 1L1 24"/></svg><svg viewBox="0 0 24 24" id="delete" xmlns="http://www.w3.org/2000/svg"><path d="M8.438 4.313H8.25a.188.188 0 00.188-.188v.188h7.124v-.188a.19.19 0 00.188.188h-.188V6h1.688V4.125c0-.827-.673-1.5-1.5-1.5h-7.5c-.827 0-1.5.673-1.5 1.5V6h1.688V4.312zM20.25 6H3.75a.75.75 0 00-.75.75v.75c0 .103.084.188.188.188h1.415l.579 12.257c.038.8.698 1.43 1.498 1.43h10.64c.802 0 1.46-.628 1.498-1.43l.579-12.258h1.416A.188.188 0 0021 7.5v-.75a.75.75 0 00-.75-.75zm-3.11 13.688H6.86l-.567-12h11.414l-.567 12z" opacity=".3"/></svg><svg viewBox="0 0 28 17" id="order-swiper" xmlns="http://www.w3.org/2000/svg"><path d="M27 8.5h-.415M0 8.5h26.585m0 0L19.108 1m7.477 7.5L19.108 16"/></svg><svg viewBox="0 0 31 36" id="play" xmlns="http://www.w3.org/2000/svg"><path d="M30 16.268c1.333.77 1.333 2.694 0 3.464L3 35.321c-1.333.77-3-.193-3-1.732V2.412C0 .872 1.667-.09 3 .679l27 15.589z"/></svg></svg>